<?xml version="1.0" encoding="UTF-8"?>
<svg id="Capa_1" xmlns="http://www.w3.org/2000/svg" version="1.1" xmlns:xlink="http://www.w3.org/1999/xlink" viewBox="0 0 214.28 176.89">
  <!-- Generator: Adobe Illustrator 29.8.4, SVG Export Plug-In . SVG Version: 2.1.1 Build 6)  -->
  <defs>
    <style>
      .st0 {
        fill: #231f20;
      }

      .st1 {
        fill: #fff;
      }

      .st2 {
        fill: none;
      }

      .st3 {
        clip-path: url(#clippath-1);
      }

      .st4 {
        fill: #ffd040;
      }

      .st5 {
        fill: #ff9015;
      }

      .st6 {
        clip-path: url(#clippath);
      }
    </style>
    <clipPath id="clippath">
      <rect class="st2" x="-63.58" y="-59.82" width="340.16" height="297.64"/>
    </clipPath>
    <clipPath id="clippath-1">
      <rect class="st2" x="-63.58" y="-59.82" width="340.16" height="297.64"/>
    </clipPath>
  </defs>
  <g class="st6">
    <g class="st3">
      <path class="st4" d="M1.5-3h209.99c3.13,0,5.67,2.54,5.67,5.67v172.66c0,3.13-2.54,5.67-5.67,5.67H1.5c-3.13,0-5.67-2.54-5.67-5.67V2.67C-4.17-.46-1.63-3,1.5-3Z"/>
      <path class="st0" d="M80.03,101.73c-6.41-.85-22.96-1.84-33.33,9.75-10.89,12.18-11.3,25.99-4.25,37.67,17.08,28.3,47.12,1.75,75.15,3.66,21.47,1.47,32.6,11.5,44.21,3.24,11.22-7.98,11.42-21.88,6.79-30.17-7.4-13.24-12-15.59-24.4-17.81-9.51-1.71-28.13,2.22-35.14,1.95-6.62-.25-19.89-7.08-29.03-8.3"/>
      <path class="st0" d="M47.7,39.87c4.95-4.56,19.64-11.71,32.65-11.56,3.66.04,9.36-.1,9.84-4.48.45-4.04-4.72-4.68-9.34-4.52-3.58.13-13.15.79-22.19,5.26-7.08,3.5-12.49,7.11-15.65,13.37-1.19,2.35-2.04,5.44-.73,5.88,2.44.81,3.33-2.04,5.41-3.95"/>
      <path class="st0" d="M84.34,71.15c0,8.85-6.45,16.03-14.41,16.03s-14.41-7.18-14.41-16.03,6.45-16.02,14.41-16.02,14.41,7.18,14.41,16.02"/>
      <path class="st0" d="M124.78,71.15c0,8.85,6.45,16.03,14.41,16.03s14.41-7.18,14.41-16.03-6.45-16.02-14.41-16.02-14.41,7.18-14.41,16.02"/>
      <path class="st0" d="M132.61,24.99s10.98,1.22,19.89,6.1c9.15,5.01,12.32,8.66,13.99,12.73,0,0-.08,2.28,1.63,2.15,1.71-.12,1.84-4.64.65-7.36-8.58-19.6-34.04-22.42-34.04-22.42,0,0-9.72-2.18-10.33,2.82-.61,5,4.32,5.37,8.22,5.98"/>
      <path class="st1" d="M52.62,141.9s13.77-5.15,56.54-2.8c38.55,2.11,45.41,5.81,45.41,5.81,2.68,1.3,5.86,2.19,4.11,4.64-1.34,1.87-1.18,4.88-18.22.16-23.92-6.62-38.51-2.71-45.83-1.24-7.32,1.47-18.53,6.66-30.24,6.98-11.71.33-14.05-7.69-14.05-7.69-1.55-3.94,1.83-5.81,2.28-5.86"/>
      <path class="st1" d="M72.83,107.83c9.1,1.01,15.33,2.95,20.13,4.76,9.39,3.54,14.27,5,24.03,3.17,11.22-2.1,26.6-2.44,34.63.86,8.66,3.55,3.97,9.25,3.97,9.25-3.62,3.54-62.65.87-84.6-.55-19.52-1.26-19.28-1.87-20.33-5.21-.86-2.7,3.39-8.4,11.18-10.94,4.88-1.59,8.78-1.59,10.98-1.34"/>
      <path class="st5" d="M45.73,72.91c-3.76,5.48-1.64,14.34,4.38,17.07,2.06.93,8.8,2.41,10.63.28,2.94-3.42-3.48-4.41-5.6-5.38-3.24-1.47-5.01-3.34-5.67-6.96-.22-1.21.39-4.62-.49-5.48-1.4-1.36-3.13.09-3.25.47"/>
      <path class="st5" d="M140.05,91.23c.98,2.61,14.76,3.52,17.41-3.5.96-2.55,1.94-9.43-2.22-8.4-2.31.57-2.81,5.52-5.18,6.78-1.68.89-10.98,2.52-10,5.12"/>
      <path class="st1" d="M75.78,65.62c0,3.06-2.48,5.53-5.53,5.53s-5.53-2.47-5.53-5.53,2.48-5.53,5.53-5.53,5.53,2.47,5.53,5.53"/>
      <path class="st1" d="M133.34,65.62c0,3.06,2.47,5.53,5.53,5.53s5.53-2.47,5.53-5.53-2.48-5.53-5.53-5.53-5.53,2.47-5.53,5.53"/>
    </g>
  </g>
</svg>