<?xml version="1.0" encoding="UTF-8"?>
<svg id="Layer_3" xmlns="http://www.w3.org/2000/svg" version="1.1" viewBox="0 0 263.11 263.68">
  <!-- Generator: Adobe Illustrator 30.2.1, SVG Export Plug-In . SVG Version: 2.1.1 Build 1)  -->
  <defs>
    <style>
      .st0, .st1 {
        fill: #fff;
      }

      .st1, .st2, .st3, .st4, .st5 {
        fill-rule: evenodd;
      }

      .st2 {
        fill: #0a0b0c;
      }

      .st6 {
        fill: none;
      }

      .st3 {
        fill: #0093dd;
      }

      .st4 {
        fill: #81c9f2;
      }

      .st5 {
        fill: #006eb2;
      }
    </style>
  </defs>
  <polygon class="st5" points="31.65 83.96 131.63 125.38 231.62 83.96 131.63 57.17 31.65 83.96"/>
  <path class="st2" d="M131.63,43.07c19.84,0,38.16,6.5,52.95,17.49,8.3.37,23.67,2.5,23.67,11.38v1.36s28.07,7.52,28.07,7.52l-11.1,84.33-15.2,8.77c-14.99,27.94-44.47,46.95-78.39,46.95s-63.4-19.01-78.39-46.95l-15.2-8.77-11.1-84.32,28.09-7.53v-1.34c0-8.88,15.34-11.01,23.65-11.39,14.79-10.99,33.12-17.5,52.96-17.5h0ZM131.63,6.47c69.3,0,125.5,56.2,125.5,125.5s-56.2,125.5-125.5,125.5S6.13,201.27,6.13,131.97,62.33,6.47,131.63,6.47Z"/>
  <path class="st1" d="M53.33,188.69c.34.42.3.81-.12,1.15l-9.93,8.04c-.2.16-.31.35-.34.55-.02.2.05.4.21.61l3.83,4.73c.34.42.3.81-.12,1.15l-2.38,1.92c-.42.34-.81.3-1.15-.12l-6.79-8.38c-.16-.2-.24-.41-.21-.6.02-.2.13-.38.34-.55l13.58-11c.21-.17.42-.24.61-.22.19.02.38.14.54.34l1.92,2.38ZM67.4,203.99c.4.37.41.76.04,1.16l-2.09,2.24c-.18.19-.37.29-.56.3-.2.01-.4-.08-.6-.26l-4.83-4.51c-.19-.18-.39-.27-.58-.26-.2,0-.39.1-.58.3l-.6.64c-.18.19-.26.39-.26.59,0,.2.11.39.3.57l3.09,2.89c.4.37.41.76.04,1.16l-2.09,2.24c-.18.19-.37.29-.56.3-.2.01-.4-.08-.6-.26l-3.09-2.89c-.19-.18-.39-.27-.58-.26-.2,0-.39.1-.58.3l-.6.64c-.18.19-.26.39-.26.59,0,.2.11.39.3.57l4.83,4.51c.4.37.41.76.04,1.16l-2.09,2.24c-.37.4-.76.41-1.16.04l-8.39-7.82c-.19-.18-.29-.37-.3-.57,0-.2.08-.4.26-.59l11.92-12.78c.19-.2.38-.3.58-.3.2,0,.39.09.58.26l8.39,7.82h0ZM60.68,215.41c-.19.24-.41.54-.64.92-.24.37-.45.8-.64,1.28-.19.48-.32,1-.39,1.56-.07.57-.02,1.16.13,1.78.15.62.45,1.26.91,1.92.45.66,1.1,1.32,1.94,1.99.85.66,1.65,1.13,2.4,1.4.75.28,1.44.42,2.08.42.64,0,1.23-.1,1.76-.3.53-.2,1.01-.45,1.43-.75.42-.3.78-.61,1.08-.94.31-.32.55-.6.73-.84l2.27-2.9c.34-.43.29-.81-.14-1.15l-4.3-3.36c-.2-.16-.41-.23-.6-.21-.2.02-.38.14-.55.35l-1.34,1.72c-.16.2-.23.41-.2.61.02.2.14.38.35.54l1.25.98c-.2.27-.42.51-.64.74-.22.22-.47.39-.73.49-.27.11-.55.13-.87.06-.32-.06-.68-.25-1.07-.56-.39-.31-.66-.61-.79-.91-.14-.3-.17-.61-.1-.93.07-.31.22-.65.45-1,.23-.36.5-.74.83-1.15l2.42-3.1c.32-.42.63-.78.91-1.08.29-.31.58-.53.86-.68.29-.15.6-.19.93-.13.32.06.68.24,1.08.55.4.32.67.63.81.94.14.31.16.64.08.96-.08.33-.24.67-.49,1.04-.15.24-.21.46-.16.65.04.19.19.34.44.47l2.85,1.36c.23.11.44.14.62.1.19-.05.35-.17.49-.37.25-.35.49-.77.71-1.26.23-.48.39-1.02.49-1.6.1-.59.09-1.21-.04-1.86-.13-.66-.42-1.33-.88-2.02-.46-.7-1.14-1.4-2.03-2.11-.85-.66-1.65-1.13-2.39-1.41-.75-.28-1.45-.42-2.08-.42-.64,0-1.23.1-1.76.3-.53.2-1.01.45-1.43.76-.42.3-.78.61-1.09.93-.31.32-.55.6-.74.85l-4.2,5.38h0ZM88.65,225.51c.15-.26.32-.6.49-1.01.18-.4.32-.86.44-1.36.11-.5.16-1.04.13-1.61-.02-.57-.16-1.15-.41-1.74-.25-.59-.64-1.17-1.2-1.76-.55-.58-1.29-1.13-2.23-1.65-.94-.52-1.81-.86-2.58-1.02-.79-.16-1.49-.19-2.12-.08-.63.1-1.2.29-1.69.57-.49.28-.93.6-1.29.97-.37.36-.68.73-.93,1.09-.25.36-.45.68-.59.95l-3.31,5.97c-.15.26-.32.6-.49,1.01-.18.4-.32.86-.43,1.36-.12.5-.16,1.04-.14,1.61.02.57.16,1.15.41,1.74.25.59.64,1.17,1.2,1.75.55.58,1.29,1.13,2.23,1.66.94.52,1.8.86,2.59,1.01.78.16,1.49.19,2.12.09.63-.1,1.2-.29,1.69-.58.5-.28.93-.6,1.29-.96.36-.36.67-.73.92-1.09.25-.36.45-.68.59-.95l3.31-5.97h0ZM81.93,227.94c-.25.46-.49.86-.73,1.21-.24.35-.49.61-.75.8-.27.19-.56.28-.9.27-.33,0-.71-.13-1.15-.37-.44-.24-.75-.5-.93-.78-.18-.28-.26-.58-.24-.9.02-.32.11-.68.29-1.06.17-.39.38-.8.64-1.26l1.91-3.44c.25-.46.5-.87.73-1.21.23-.35.49-.61.75-.8.27-.19.56-.28.9-.27.33,0,.71.13,1.15.37.44.24.75.5.93.78.18.28.26.58.24.9-.02.32-.11.68-.28,1.06-.17.38-.38.8-.64,1.26l-1.91,3.44h0ZM97.98,222.78c-.25-.07-.47-.06-.64.03-.17.09-.3.27-.37.53l-3.35,11.68c-.09.29-.17.66-.25,1.09-.08.43-.12.91-.11,1.42,0,.52.08,1.05.23,1.59.15.55.41,1.08.79,1.6.37.52.89,1,1.56,1.44.66.44,1.51.81,2.54,1.11,1.03.29,1.95.43,2.75.4.8-.02,1.5-.15,2.09-.39.6-.24,1.1-.56,1.52-.94.42-.38.77-.79,1.04-1.23.27-.44.49-.86.65-1.27.17-.41.29-.77.37-1.06l3.35-11.68c.15-.52-.04-.86-.56-1.01l-2.94-.84c-.25-.07-.46-.06-.64.03-.17.09-.3.27-.38.53l-2.95,10.29c-.14.51-.29.96-.44,1.35-.15.39-.34.71-.55.95-.22.25-.48.4-.81.47-.32.07-.72.03-1.21-.1-.48-.14-.84-.32-1.08-.55-.24-.23-.39-.5-.44-.83-.05-.32-.04-.68.04-1.1.07-.41.19-.87.34-1.38l2.95-10.29c.15-.52-.04-.86-.56-1.01l-2.94-.84h0ZM122.64,234.29c.25-.02.44-.11.58-.24.14-.13.21-.32.23-.57.02-.4,0-.85-.09-1.36-.08-.51-.25-1.03-.51-1.56-.25-.54-.61-1.04-1.09-1.52-.48-.49-1.1-.91-1.86-1.26-.76-.35-1.7-.6-2.81-.74-1.01-.12-1.89-.1-2.64.04-.75.15-1.39.37-1.91.7-.53.32-.96.68-1.31,1.08-.34.41-.61.81-.8,1.22-.2.4-.34.77-.42,1.08-.09.32-.13.55-.14.69-.09.78-.06,1.47.1,2.08.16.62.4,1.16.74,1.64.34.48.74.9,1.19,1.27.45.37.93.71,1.43,1,.5.3,1,.57,1.49.82.48.25.92.49,1.33.73.4.24.73.48.98.73.25.25.39.52.43.81.02.25-.07.49-.27.7-.2.21-.49.37-.84.47-.36.11-.76.14-1.21.09-.43-.05-.8-.18-1.13-.39-.32-.2-.57-.47-.75-.81-.18-.33-.26-.72-.25-1.16,0-.29-.06-.5-.19-.64-.13-.14-.34-.2-.62-.18l-3.15.3c-.25.02-.44.1-.58.24-.14.14-.21.33-.23.57-.03.43,0,.92.06,1.45.07.53.23,1.08.47,1.63.24.56.6,1.09,1.07,1.58.48.5,1.1.93,1.87,1.29.77.36,1.72.61,2.85.76,1.07.12,2.01.12,2.82-.02.81-.13,1.51-.36,2.1-.67.58-.31,1.08-.67,1.47-1.07.4-.4.71-.8.94-1.2.24-.4.41-.76.52-1.07.11-.32.17-.54.19-.69.09-.78.05-1.48-.12-2.11-.17-.63-.43-1.19-.78-1.69-.35-.5-.77-.95-1.24-1.35-.47-.4-.97-.76-1.49-1.08-.52-.32-1.03-.62-1.54-.89-.5-.27-.95-.53-1.36-.78-.41-.24-.74-.49-.99-.73-.25-.25-.38-.5-.41-.77,0-.22.06-.41.21-.58s.35-.31.62-.39c.26-.09.58-.11.93-.07.64.08,1.15.31,1.52.69.38.37.58.84.61,1.42,0,.28.07.48.2.62.13.14.33.19.61.17l3.17-.3h0ZM137.29,228.55c.55,0,.81.29.8.83l-.05,3.06c0,.26-.08.46-.22.6-.14.14-.34.21-.62.2l-6.61-.12c-.26,0-.47.06-.61.19-.14.13-.22.34-.22.61l-.02.87c0,.26.07.46.2.61.14.14.34.22.6.22l4.23.07c.55,0,.81.29.8.83l-.05,3.06c0,.26-.08.46-.22.6-.14.14-.35.21-.62.2l-4.23-.07c-.26,0-.47.06-.61.19-.14.13-.22.34-.22.61l-.02.87c0,.26.06.47.2.61.14.14.34.22.6.22l6.61.12c.55,0,.81.29.8.83l-.05,3.06c0,.55-.29.81-.83.8l-11.47-.2c-.26,0-.46-.08-.6-.22-.14-.14-.21-.35-.2-.61l.3-17.47c0-.27.08-.48.22-.61.14-.13.35-.2.61-.19l11.47.2h0ZM151.27,239.06c-.04-.06-.05-.13-.04-.2,0-.06.03-.12.08-.17.65-.6,1.09-1.37,1.31-2.29.23-.93.26-2.02.1-3.28-.18-1.48-.55-2.67-1.14-3.58-.58-.91-1.39-1.53-2.45-1.87-1.06-.35-2.39-.42-3.99-.22l-5.93.73c-.25.04-.44.14-.57.31-.13.17-.19.39-.17.64l2.12,17.29c.04.25.14.44.31.57.17.13.38.19.63.17l3.03-.37c.25-.04.44-.14.57-.31.14-.17.19-.38.17-.63l-.53-4.28c-.03-.25.03-.46.16-.63.13-.17.33-.27.58-.31l1.08-.13s.08,0,.12.02c.04.02.08.05.11.09l3.49,5.1c.07.11.17.2.29.25.12.05.25.07.38.05l3.09-.38c.28-.04.5-.14.66-.31.16-.17.24-.36.26-.59.02-.23-.06-.45-.21-.68l-3.53-4.99h0ZM145.87,232.1c.32-.04.61-.06.86-.06.25.01.46.06.64.16.18.1.32.27.43.51.11.24.19.57.24.98.05.42.05.75,0,1.01-.05.26-.15.46-.3.6-.15.14-.34.25-.58.32-.24.07-.52.12-.85.15l-1.38.17c-.25.03-.46-.03-.63-.16-.17-.14-.27-.32-.31-.57l-.25-2.01c-.03-.25.03-.46.16-.63.13-.17.33-.27.58-.31l1.38-.17h0ZM162.59,237.15c.09.29.22.64.4,1.04.18.41.41.82.7,1.25.29.43.65.83,1.08,1.19.43.37.95.67,1.55.89.6.22,1.3.33,2.1.32.8,0,1.71-.17,2.73-.5,1.02-.34,1.86-.74,2.5-1.2.65-.46,1.16-.96,1.51-1.49.36-.53.6-1.08.73-1.63.14-.55.19-1.09.18-1.6-.02-.52-.07-.99-.17-1.42-.09-.43-.19-.79-.29-1.08l-1.14-3.51c-.17-.52-.51-.69-1.03-.53l-5.19,1.69c-.25.08-.42.21-.51.38-.09.17-.1.39-.01.65l.67,2.08c.08.25.21.42.39.51.18.09.4.1.64.02l1.51-.49c.11.32.19.63.25.94.06.31.06.6,0,.88-.06.28-.2.53-.44.76-.23.23-.59.42-1.06.58-.48.15-.88.2-1.2.15-.33-.06-.6-.2-.83-.44-.22-.23-.42-.54-.58-.93-.17-.39-.33-.83-.49-1.33l-1.21-3.74c-.17-.5-.3-.96-.39-1.36-.09-.41-.12-.77-.08-1.09.04-.32.18-.6.41-.84.23-.24.58-.43,1.06-.59.49-.16.9-.21,1.24-.14.34.06.62.22.84.47.23.25.42.58.59.99.11.26.26.43.44.5.18.07.39.04.63-.1l2.72-1.6c.22-.13.36-.28.43-.46.07-.18.06-.38-.03-.61-.16-.4-.37-.84-.65-1.3-.27-.46-.63-.89-1.05-1.3-.43-.41-.95-.75-1.56-1.01-.62-.26-1.34-.39-2.17-.4-.84-.01-1.79.16-2.88.51-1.02.34-1.86.74-2.51,1.2-.65.47-1.16.96-1.51,1.5-.36.53-.6,1.08-.73,1.63-.13.55-.19,1.09-.17,1.61.02.52.07.99.17,1.42.09.43.19.79.29,1.08l2.11,6.49ZM187.35,225.65c-.06-.05-.09-.11-.11-.17-.01-.06-.01-.12.02-.18.41-.79.55-1.66.45-2.6-.1-.95-.45-1.98-1.03-3.11-.67-1.33-1.43-2.32-2.29-2.97-.85-.65-1.83-.96-2.94-.92-1.11.03-2.39.42-3.82,1.16l-5.33,2.72c-.22.12-.36.28-.43.49-.07.21-.05.43.06.65l7.91,15.52c.12.22.28.36.49.43.21.07.42.05.65-.06l2.72-1.39c.22-.12.36-.28.43-.49.07-.21.05-.42-.06-.65l-1.96-3.84c-.11-.23-.13-.44-.07-.65.07-.21.22-.37.44-.49l.97-.5s.08-.03.12-.02c.05,0,.09.02.13.04l5.02,3.6c.11.08.23.13.36.14.13.01.26-.02.38-.08l2.77-1.41c.25-.13.42-.31.52-.51.09-.21.1-.43.04-.64-.06-.22-.21-.41-.43-.56l-5.02-3.48h0ZM179.91,220.96c.29-.15.55-.27.79-.35.24-.08.46-.1.66-.06.2.04.4.15.58.33.19.19.38.47.57.84s.31.69.35.95c.04.26.02.48-.08.66-.09.18-.24.35-.44.5-.2.14-.45.29-.74.44l-1.24.63c-.23.11-.44.13-.65.06-.21-.07-.37-.21-.49-.43l-.92-1.8c-.11-.23-.13-.44-.07-.65.07-.21.21-.37.44-.49l1.24-.63h0ZM198.79,210.29c-.17-.25-.4-.55-.69-.88-.28-.33-.63-.66-1.03-.99-.4-.32-.86-.6-1.39-.83-.52-.23-1.1-.36-1.74-.39-.64-.04-1.34.06-2.1.31-.76.24-1.58.67-2.46,1.28-.88.62-1.56,1.25-2.05,1.88-.49.64-.82,1.26-1.01,1.87-.19.61-.26,1.21-.23,1.77.04.57.14,1.1.3,1.59.17.49.36.93.57,1.31.22.39.42.7.59.95l3.91,5.59c.17.25.4.55.69.88.28.33.63.66,1.04.99.4.33.86.6,1.38.83.52.23,1.1.36,1.74.4.64.04,1.34-.06,2.1-.31.76-.24,1.58-.67,2.47-1.28.88-.62,1.56-1.25,2.04-1.88.49-.63.83-1.26,1.01-1.87.19-.61.26-1.21.22-1.77-.03-.57-.13-1.09-.3-1.58-.17-.49-.36-.93-.58-1.31-.22-.39-.41-.7-.59-.95l-3.91-5.59h0ZM198.03,217.39c.31.43.56.82.77,1.19.21.37.34.71.39,1.03.05.32,0,.63-.15.93-.15.29-.43.58-.84.87-.41.29-.78.45-1.11.49-.33.04-.63-.02-.92-.18-.28-.16-.56-.4-.83-.72-.27-.32-.56-.69-.86-1.13l-2.26-3.22c-.31-.43-.56-.83-.77-1.19-.21-.36-.34-.71-.39-1.02-.05-.32,0-.63.15-.93.15-.29.43-.58.84-.87.41-.29.78-.45,1.11-.49.33-.04.63.02.92.18.28.16.56.4.83.72.27.32.55.7.85,1.13l2.25,3.22h0ZM195.71,204.22c-.19.18-.29.37-.3.56,0,.2.08.4.26.6l8.29,8.89c.2.23.47.49.81.78.33.29.72.57,1.16.83.44.27.94.47,1.49.63.55.15,1.14.2,1.78.15.64-.05,1.32-.25,2.04-.6.72-.34,1.48-.88,2.26-1.61.78-.74,1.37-1.45,1.76-2.15.4-.69.64-1.36.74-1.99.1-.63.09-1.23-.02-1.79-.11-.56-.29-1.07-.52-1.53-.24-.46-.49-.87-.75-1.21-.27-.35-.51-.64-.72-.86l-8.29-8.89c-.37-.4-.76-.41-1.16-.04l-2.24,2.08c-.19.18-.29.37-.3.56,0,.2.08.39.26.59l7.3,7.83c.36.38.67.74.93,1.07.26.33.43.66.53.96.1.31.09.62-.02.94-.11.31-.34.64-.71.98-.37.34-.71.55-1.03.64-.32.09-.63.07-.94-.05-.3-.12-.61-.32-.92-.6-.31-.27-.65-.61-1.01-1l-7.3-7.83c-.37-.4-.76-.41-1.16-.04l-2.24,2.09h0ZM205.8,193.84c-.16.22-.23.43-.21.62.02.2.14.38.35.55l13.56,10.98c.2.16.41.24.6.21.2-.02.38-.13.55-.34l1.92-2.38c.34-.42.3-.81-.12-1.15l-3.39-2.75c-.21-.17-.33-.36-.34-.55-.02-.2.06-.4.22-.6l.82-1.02c1.02-1.26,1.66-2.42,1.93-3.5.27-1.08.17-2.1-.29-3.07-.46-.97-1.27-1.93-2.43-2.86-1.16-.94-2.25-1.54-3.3-1.78-1.05-.25-2.07-.13-3.06.35-1,.48-2.01,1.35-3.02,2.61l-3.78,4.67h0ZM215.29,195.48c-.16.2-.35.31-.55.34-.2.02-.4-.05-.61-.21l-1.61-1.31c-.21-.17-.33-.36-.34-.55-.02-.2.06-.4.22-.6l.93-1.15c.2-.26.4-.47.58-.64.19-.17.37-.28.57-.33.2-.05.42-.03.67.07s.53.27.86.54c.33.26.56.51.7.73.14.22.21.43.2.64,0,.21-.07.42-.2.63-.13.21-.29.45-.5.7l-.93,1.15Z"/>
  <path class="st0" d="M57.68,44.44c-.17.15-.27.3-.28.46-.02.16.04.33.18.5l8.86,11.35c.13.17.28.26.44.28.17.02.33-.03.5-.17l4.39-3.43c.83-.65,1.47-1.26,1.92-1.83.45-.57.74-1.12.85-1.65.12-.53.08-1.05-.09-1.57-.18-.52-.49-1.05-.92-1.6-.29-.36-.61-.66-.96-.89s-.71-.38-1.07-.45c-.36-.08-.71-.08-1.05,0,.02-.34,0-.68-.06-1-.07-.33-.16-.63-.27-.92-.12-.29-.25-.55-.38-.78-.14-.23-.27-.42-.39-.57-.75-.97-1.53-1.66-2.33-2.04-.8-.39-1.66-.47-2.58-.25-.92.22-1.93.77-3.03,1.63l-3.73,2.92ZM65.01,47.52c-.17.13-.34.19-.5.17-.16-.02-.31-.11-.45-.29l-1.05-1.35c-.14-.18-.2-.35-.17-.51.02-.16.12-.31.29-.44l.96-.75c.28-.23.53-.39.76-.48.23-.1.46-.1.69,0,.23.1.49.33.77.69.28.36.44.66.48.91.04.25-.01.47-.16.67-.15.2-.37.41-.66.62l-.96.75h0ZM68.45,51.97c-.17.13-.33.19-.5.17-.16-.02-.31-.11-.45-.29l-.63-.82c-.14-.18-.2-.35-.17-.51.02-.16.12-.31.29-.44l1.15-.9c.28-.23.53-.39.75-.48.22-.1.42-.11.62-.04.19.07.4.24.62.52.21.27.33.51.33.72.01.21-.06.4-.22.59-.16.19-.38.39-.67.61l-1.12.88h0Z"/>
  <path class="st0" d="M70.06,35.26c-.19.11-.31.24-.36.39-.04.15-.01.33.09.53l4.86,8.77c.12.22.28.48.49.78.21.3.46.6.76.9.3.3.66.57,1.07.8.41.23.87.39,1.39.48.52.08,1.11.06,1.75-.07.65-.13,1.36-.41,2.13-.84.77-.44,1.39-.89,1.84-1.37.45-.48.79-.96.99-1.45.21-.49.32-.97.34-1.43.02-.47-.01-.91-.11-1.33-.1-.42-.22-.79-.36-1.12-.14-.33-.28-.61-.41-.83l-4.86-8.77c-.22-.39-.53-.48-.92-.26l-2.21,1.22c-.19.1-.31.23-.35.39-.05.16-.02.33.09.53l4.28,7.73c.21.38.39.72.53,1.04.14.32.22.61.23.88.02.27-.05.51-.2.74-.15.23-.41.44-.77.64-.36.2-.68.3-.95.31-.27,0-.51-.07-.73-.23-.22-.16-.42-.38-.62-.66-.2-.29-.4-.62-.6-1l-4.28-7.72c-.22-.39-.53-.48-.92-.26l-2.2,1.22h0Z"/>
  <path class="st0" d="M92.5,24.26c.42-.17.71-.05.88.37l.95,2.34c.08.2.09.38.03.53-.06.15-.2.27-.4.36l-5.06,2.04c-.2.08-.33.2-.4.35-.06.15-.06.33.03.54l.27.67c.08.2.2.33.35.39.15.06.33.06.53-.02l3.24-1.31c.42-.17.71-.05.88.37l.94,2.34c.08.2.09.38.03.53-.06.15-.2.27-.4.35l-3.24,1.31c-.2.08-.33.2-.4.34-.07.15-.06.33.02.54l.27.67c.08.2.2.33.35.39.15.07.33.06.53-.02l5.06-2.04c.42-.17.71-.05.88.37l.95,2.34c.16.42.04.71-.38.88l-8.77,3.55c-.2.08-.38.09-.53.02-.15-.06-.27-.2-.35-.39l-5.41-13.37c-.08-.21-.09-.39-.02-.54.06-.15.2-.26.4-.34l8.77-3.55h0Z"/>
  <path class="st0" d="M100.19,21.79c.18-.05.35-.06.49-.01.15.05.28.14.41.29l5.01,6.37c.08.08.14.11.2.08.05-.03.07-.1.04-.21l-2.01-6.99c-.06-.22-.05-.4.03-.54.08-.14.23-.24.43-.3l2.42-.69c.44-.12.71.03.84.46l3.97,13.86c.06.21.05.38-.02.53-.08.14-.23.24-.44.31l-3.19.91c-.18.06-.35.06-.49.01-.15-.04-.28-.14-.41-.29l-5.01-6.37c-.08-.08-.14-.11-.2-.07-.06.03-.07.11-.05.22l2.01,6.99c.06.21.05.38-.02.53-.07.14-.22.25-.44.31l-2.43.7c-.21.06-.38.04-.53-.03-.15-.08-.25-.23-.31-.43l-3.97-13.86c-.06-.22-.05-.39.03-.54.08-.14.23-.24.43-.3l3.19-.91h0Z"/>
  <path class="st0" d="M124.01,22.46c-.03-.25-.09-.56-.18-.91-.08-.35-.21-.73-.39-1.12-.17-.39-.41-.76-.71-1.13-.3-.36-.68-.67-1.13-.94-.46-.27-1.01-.45-1.66-.56-.65-.11-1.42-.1-2.29.02-.88.13-1.61.33-2.21.62-.59.28-1.07.61-1.44,1-.36.38-.64.79-.83,1.22-.19.43-.31.86-.37,1.28-.06.42-.08.81-.07,1.18.02.36.04.67.08.92l.79,5.58c.03.25.09.55.18.91.08.35.21.72.39,1.11.17.39.41.77.71,1.13.3.36.68.68,1.13.94.46.27,1.01.45,1.66.56.65.11,1.42.1,2.3-.01.88-.13,1.61-.33,2.21-.62.59-.28,1.07-.62,1.44-1,.36-.38.64-.79.83-1.22.18-.43.31-.86.37-1.28.06-.42.08-.82.07-1.18-.01-.36-.04-.67-.08-.92l-.78-5.58ZM120.79,27.4c.06.43.1.81.12,1.16.01.35-.02.65-.1.9-.08.26-.23.47-.45.62-.22.16-.54.27-.95.33-.41.06-.74.04-1-.05-.26-.09-.46-.25-.6-.47-.15-.23-.26-.5-.34-.84-.08-.34-.15-.72-.21-1.15l-.45-3.21c-.06-.43-.11-.82-.12-1.16-.01-.35.02-.65.1-.9.08-.26.23-.46.45-.62.22-.16.54-.27.95-.33.41-.06.74-.04,1,.06.26.09.46.25.6.47.15.23.26.5.34.84.08.33.15.72.21,1.15l.45,3.22h0Z"/>
  <path class="st0" d="M137.86,22.44c.2-.05.35-.13.45-.26.1-.12.14-.29.13-.49-.02-.33-.09-.7-.21-1.11-.12-.41-.31-.82-.57-1.23-.26-.41-.61-.79-1.04-1.14-.44-.35-.99-.63-1.65-.84-.66-.21-1.45-.32-2.38-.33-.84,0-1.55.11-2.16.3-.6.2-1.1.45-1.5.76-.4.31-.72.65-.96,1.02-.24.37-.42.72-.54,1.08-.12.35-.2.66-.23.93-.04.27-.05.46-.05.58,0,.65.1,1.21.29,1.69.19.49.45.91.77,1.27.33.36.69.66,1.1.92.41.26.83.48,1.27.68.44.19.88.37,1.3.53.42.16.81.31,1.16.46.35.15.64.32.88.5.23.18.38.39.43.62.04.21-.01.41-.15.6-.15.19-.36.35-.64.47-.29.12-.61.19-.98.19-.36,0-.68-.07-.97-.2-.29-.14-.52-.33-.7-.59-.18-.26-.29-.56-.32-.92-.02-.24-.1-.41-.22-.5-.12-.1-.3-.13-.52-.08l-2.55.56c-.2.05-.35.13-.45.25-.1.13-.14.29-.13.49.02.36.09.75.2,1.18.11.43.3.86.55,1.29.26.43.6.83,1.04,1.19.44.36.99.65,1.66.87.67.22,1.47.33,2.42.34.89,0,1.66-.11,2.31-.3.65-.19,1.2-.45,1.65-.76.45-.32.82-.65,1.1-1.02.29-.36.5-.72.65-1.07.15-.35.26-.66.32-.93.06-.27.09-.46.08-.58,0-.65-.11-1.22-.31-1.71-.2-.5-.47-.93-.81-1.3-.34-.38-.72-.7-1.15-.98-.43-.28-.87-.53-1.33-.74-.46-.21-.91-.41-1.35-.57-.44-.17-.83-.34-1.19-.5-.36-.16-.66-.33-.89-.5-.23-.18-.36-.37-.41-.59-.03-.18,0-.34.11-.5.1-.16.26-.29.47-.38.21-.1.46-.15.75-.15.54,0,.98.14,1.32.41.35.27.56.63.64,1.1.03.23.11.39.23.48.12.1.29.12.51.08l2.57-.56h0Z"/>
  <path class="st0" d="M157.91,35.84c-.05.24-.15.42-.29.52-.14.1-.32.13-.54.09l-2.47-.53c-.21-.05-.36-.14-.45-.27-.09-.14-.11-.32-.07-.53l.41-1.92c.09-.44-.08-.71-.52-.8l-1.89-.4c-.21-.05-.39-.03-.53.06-.14.09-.23.24-.28.46l-.41,1.92c-.09.44-.36.61-.8.52l-2.47-.52c-.21-.05-.36-.15-.45-.3-.09-.15-.11-.35-.06-.59l1.99-9.35c.11-.56.26-1.11.44-1.65.18-.53.42-1.02.72-1.47.3-.45.69-.81,1.16-1.11.47-.29,1.06-.48,1.77-.55.7-.07,1.55-.01,2.54.2.82.18,1.51.41,2.07.68.56.27,1.01.59,1.34.95.34.36.59.74.75,1.16.16.42.26.85.29,1.3.03.45.01.91-.04,1.38-.06.47-.14.94-.24,1.4l-1.98,9.35h0ZM156.1,25.69c.06-.26.09-.5.1-.7,0-.21-.03-.39-.11-.54-.08-.15-.22-.29-.42-.4-.2-.11-.48-.21-.84-.28-.36-.08-.66-.11-.89-.09-.23.02-.41.09-.55.2-.14.11-.24.26-.32.45-.08.19-.14.42-.2.68l-.51,2.4c-.05.21-.02.39.07.53.09.14.24.23.45.27l1.9.41c.22.03.4,0,.53-.08.14-.09.23-.24.27-.46l.51-2.38h0Z"/>
  <path class="st0" d="M167.98,23.27c.42.15.56.43.42.86l-4.7,13.64c-.07.2-.18.34-.32.41-.15.07-.33.07-.54,0l-2.34-.81c-.2-.07-.34-.18-.41-.33-.08-.15-.07-.32,0-.53l4.7-13.63c.08-.21.19-.35.33-.42.15-.07.32-.07.53,0l2.34.81Z"/>
  <path class="st0" d="M176.65,37.74c0-.06.02-.12.05-.16.03-.04.07-.07.13-.08.72-.15,1.35-.5,1.9-1.06.55-.56,1.04-1.32,1.46-2.28.5-1.12.74-2.13.72-3.01-.03-.89-.34-1.68-.94-2.37-.6-.69-1.51-1.31-2.72-1.85l-4.51-2.01c-.19-.08-.37-.09-.54-.02-.17.06-.3.19-.38.38l-5.84,13.13c-.08.19-.09.37-.03.54.07.17.19.3.38.39l2.31,1.03c.19.08.37.09.54.02.17-.06.3-.19.38-.38l1.45-3.25c.09-.19.21-.32.38-.38.17-.06.35-.06.54.03l.82.36s.06.04.08.07c.02.03.03.07.04.11l.3,5.09c0,.11.03.21.1.3.06.09.14.15.25.2l2.35,1.04c.22.09.42.11.6.06.18-.05.33-.15.44-.3.1-.15.15-.35.14-.57l-.38-5.03h0ZM175.8,30.53c.25.11.46.22.63.33.17.11.3.24.38.39.08.15.11.33.09.55-.02.22-.1.48-.24.8-.14.32-.29.55-.43.71-.15.16-.3.26-.47.3-.17.04-.35.03-.54-.02-.2-.05-.42-.14-.67-.25l-1.05-.47c-.19-.09-.32-.21-.38-.38-.06-.17-.06-.35.02-.54l.68-1.53c.09-.19.21-.31.38-.38.17-.07.35-.06.54.02l1.05.47h0Z"/>
  <path class="st0" d="M194.17,35.9c.39.22.48.52.26.92l-1.22,2.21c-.11.19-.23.3-.39.35-.16.05-.33.02-.53-.09l-4.77-2.64c-.19-.11-.36-.13-.52-.09-.16.04-.29.16-.4.36l-.35.63c-.1.19-.13.36-.09.52.05.16.17.29.35.4l3.06,1.69c.39.22.48.52.26.92l-1.22,2.21c-.1.19-.23.3-.39.35-.15.05-.33.02-.53-.09l-3.05-1.69c-.19-.11-.36-.14-.52-.09-.15.04-.29.16-.4.36l-.35.63c-.1.19-.14.36-.09.52.04.16.16.29.35.4l4.77,2.64c.39.22.48.52.27.92l-1.22,2.21c-.22.39-.53.48-.92.26l-8.27-4.59c-.19-.11-.3-.24-.35-.4-.05-.16-.02-.33.09-.52l6.99-12.61c.11-.2.24-.32.4-.36.16-.04.33-.01.52.09l8.28,4.59h0Z"/>
  <path class="st0" d="M203.17,49.01c.18.09.36.12.51.09s.29-.13.41-.3c.16-.23.31-.49.45-.8.14-.31.25-.66.34-1.04.08-.38.11-.79.09-1.22-.02-.43-.12-.88-.28-1.34-.17-.47-.43-.94-.79-1.43-.36-.48-.84-.97-1.44-1.46-.56-.45-1.1-.79-1.61-1.02-.51-.23-1-.37-1.45-.42-.46-.06-.88-.05-1.27.02-.39.07-.75.18-1.07.32-.32.15-.6.3-.84.48-.24.17-.44.33-.59.48-.15.15-.26.27-.32.35-.4.51-.68,1.01-.84,1.5-.16.5-.22.99-.19,1.47.03.48.12.95.27,1.41.15.46.34.9.57,1.33.22.43.45.83.68,1.22.23.39.43.75.61,1.09.18.34.3.65.36.94.07.29.05.54-.06.76-.1.18-.26.31-.5.36-.23.06-.5.05-.8-.04-.3-.08-.59-.24-.89-.47-.27-.23-.48-.48-.62-.76-.14-.29-.2-.59-.18-.89.02-.31.13-.62.33-.92.13-.2.18-.38.15-.53-.03-.16-.15-.29-.36-.39l-2.33-1.16c-.18-.09-.36-.12-.51-.09-.15.03-.29.14-.41.3-.17.24-.34.52-.5.85-.16.32-.29.68-.39,1.07-.1.39-.14.8-.13,1.24,0,.44.09.9.26,1.37.16.48.42.96.79,1.45.36.5.85.99,1.46,1.49.69.56,1.35.96,1.98,1.22.63.26,1.22.41,1.76.45.55.04,1.05,0,1.5-.1.45-.11.85-.25,1.19-.42.34-.18.62-.35.83-.52.21-.17.36-.31.43-.4.4-.5.68-1.01.84-1.52.15-.51.22-1.02.19-1.53-.03-.5-.12-1-.28-1.49-.16-.48-.35-.95-.57-1.41-.22-.45-.45-.88-.68-1.29-.23-.41-.44-.79-.62-1.14-.18-.35-.3-.67-.37-.95-.07-.28-.05-.52.05-.71.09-.15.22-.26.4-.32.18-.06.38-.06.6,0,.22.06.45.17.68.36.27.23.48.47.62.74.14.27.2.54.2.83,0,.28-.09.56-.24.84-.12.2-.16.37-.13.52.03.15.15.28.35.39l2.35,1.18h0Z"/>
  <polygon class="st5" points="131.63 125.38 31.65 83.96 41.99 162.51 131.63 214.26 131.63 125.38"/>
  <polygon class="st3" points="131.63 125.38 231.62 83.96 221.27 162.51 131.63 214.26 131.63 125.38"/>
  <path class="st0" d="M55.24,112.73c-.43-.16-.73-.11-.91.14-.18.26-.22.74-.15,1.42.77,7.27,1.52,14.41,2.26,21.4.73,6.85,1.45,13.58,2.15,20.17.06.58.22,1.1.47,1.54.24.42.56.75.95.96,3.38,1.84,6.82,3.73,10.31,5.63,2.01,1.1,3.66,1.78,4.98,2.06,1.33.28,2.37.16,3.11-.36.74-.52,1.23-1.43,1.47-2.71.23-1.28.28-2.93.11-4.94-.11-1.36-.33-2.67-.71-3.96-.35-1.28-.8-2.46-1.35-3.54-.56-1.09-1.15-1.99-1.8-2.75.4-.52.71-1.15.94-1.87.24-.74.4-1.51.5-2.33.11-.81.16-1.59.17-2.37,0-.77-.01-1.45-.06-2.04-.26-3.75-.92-7.07-1.91-9.94-.99-2.87-2.44-5.33-4.29-7.35-1.87-2.05-4.21-3.7-7.02-4.97-3.12-1.42-6.2-2.81-9.23-4.2h0ZM64.77,137.2c-.41-.2-.76-.53-1.01-.98-.25-.44-.41-1-.48-1.67-.16-1.68-.33-3.38-.49-5.09-.06-.68,0-1.13.19-1.36.2-.23.52-.25.92-.05.79.38,1.59.76,2.39,1.15.53.24,1,.51,1.41.79.4.3.76.65,1.06,1.09.29.44.54,1,.73,1.69.19.69.32,1.56.41,2.6.09,1.04.1,1.84.02,2.39-.08.54-.25.9-.48,1.06-.24.17-.56.21-.95.11-.39-.1-.84-.3-1.36-.56-.8-.39-1.59-.78-2.36-1.17h0ZM66.26,153.37c-.4-.21-.74-.53-.99-.97-.25-.43-.4-.96-.46-1.6-.09-.98-.19-1.95-.29-2.94-.06-.64,0-1.06.19-1.27.19-.21.51-.21.91,0,.92.48,1.86.96,2.81,1.45.68.34,1.27.71,1.74,1.11.46.41.83.92,1.09,1.54.26.61.44,1.42.53,2.42.09,1.01.02,1.66-.17,2.03-.18.36-.5.48-.96.38-.44-.11-1.02-.36-1.7-.72-.91-.48-1.81-.96-2.7-1.43h0ZM106.63,181.69c.03.72-.08,1.2-.31,1.43-.23.24-.58.24-1.08-.03-1.82-1-3.65-1.99-5.44-2.97-.45-.25-.81-.6-1.08-1.06-.26-.45-.41-1-.44-1.64-.09-1.87-.19-3.75-.29-5.65-.07-1.31-.58-2.22-1.54-2.74-1.37-.73-2.74-1.45-4.1-2.17-.44-.23-.79-.25-1.02-.06-.22.19-.31.62-.27,1.27.11,1.88.23,3.75.34,5.6.08,1.28-.35,1.66-1.28,1.15-1.72-.94-3.43-1.87-5.11-2.8-.43-.23-.78-.61-1.04-1.11-.25-.48-.41-1.08-.46-1.78-.33-4.5-.66-9.07-.98-13.7-.33-4.69-.68-9.46-1.02-14.29-.13-1.75-.2-3.46-.19-5.14,0-1.67.17-3.2.48-4.56.32-1.37.85-2.48,1.63-3.31.78-.83,1.89-1.27,3.29-1.32,1.43-.05,3.27.43,5.49,1.41,2.28,1.04,4.18,2.27,5.75,3.68,1.56,1.42,2.84,2.98,3.83,4.66.98,1.69,1.73,3.45,2.25,5.28.53,1.83.9,3.68,1.12,5.54.22,1.86.35,3.69.41,5.49.19,4.98.38,9.89.56,14.72.18,4.76.36,9.46.54,14.08h0ZM96.82,148.64c-.03-.83-.1-1.59-.22-2.27-.09-.66-.29-1.27-.54-1.8-.28-.56-.66-1.05-1.15-1.49-.52-.45-1.17-.86-1.97-1.25-.81-.39-1.44-.59-1.91-.61-.46-.01-.8.13-1.01.45-.22.29-.35.75-.39,1.33-.03.6-.02,1.32.04,2.15.14,2.52.3,5.02.45,7.5.04.64.19,1.23.46,1.7.27.47.64.84,1.09,1.07,1.38.7,2.77,1.4,4.17,2.11.49.21.85.21,1.07-.01.23-.23.32-.69.29-1.37-.12-2.48-.25-4.98-.38-7.5h0Z"/>
  <path class="st0" d="M151.87,137.58c1.08-.49,1.6.02,1.55,1.52-.18,5.79-.35,11.48-.52,17.06-.17,5.5-.34,10.92-.51,16.24-.02.65.11,1.07.36,1.28.25.21.62.2,1.11-.06,3.74-1.96,7.43-3.89,11.07-5.79.97-.51,1.42-.1,1.35,1.22-.13,2.45-.26,4.89-.38,7.3-.06,1.28-.58,2.18-1.53,2.7-6.38,3.48-12.92,7.05-19.62,10.7-.49.27-.88.31-1.14.12-.27-.2-.4-.61-.39-1.23.12-7.12.26-14.41.39-21.85.13-7.61.26-15.41.41-23.38.01-.76.18-1.4.47-1.91.29-.51.72-.89,1.25-1.13,2.05-.93,4.1-1.86,6.13-2.78h0ZM172.61,128.19c-.48.22-.86.58-1.14,1.06-.27.48-.45,1.09-.49,1.83-.3,5.38-.58,10.67-.87,15.88-.28,5.13-.56,10.21-.84,15.18-.04.74-.06,1.64-.04,2.67.01,1.02.12,2.07.31,3.12.17,1.05.49,2.02.94,2.89.45.88,1.06,1.55,1.88,2.01.79.46,1.81.62,3.07.47,1.23-.14,2.73-.69,4.5-1.64,1.77-.98,3.29-2.08,4.57-3.31,1.27-1.21,2.35-2.49,3.23-3.84.88-1.34,1.6-2.71,2.17-4.09.57-1.38,1.01-2.71,1.36-3.99.32-1.27.56-2.45.73-3.51.16-1.08.26-1.99.32-2.71.42-4.83.85-9.75,1.29-14.73.44-5.04.9-10.17,1.35-15.38.12-1.42-.28-1.92-1.18-1.51-1.72.78-3.45,1.56-5.18,2.35-.45.2-.81.55-1.08,1.02-.27.47-.43,1.06-.5,1.78-.36,4.65-.71,9.22-1.05,13.73-.34,4.46-.68,8.86-1.02,13.22-.08,1.27-.2,2.42-.34,3.45-.14,1.04-.35,1.97-.64,2.78-.28.83-.68,1.54-1.19,2.17-.51.62-1.19,1.15-2.03,1.59-.83.44-1.48.6-1.94.49-.48-.11-.8-.45-.99-1.03-.18-.58-.28-1.36-.27-2.34,0-.97.04-2.1.13-3.39.29-4.39.59-8.84.89-13.34.3-4.57.61-9.19.92-13.88.1-1.45-.34-1.96-1.31-1.51-1.83.84-3.68,1.66-5.53,2.5h0ZM195.95,148.33c-.08.73-.13,1.6-.16,2.59-.03,1,.03,2.01.14,3.05.12,1.02.36,1.97.71,2.84.35.87.88,1.55,1.57,2.03.67.48,1.57.67,2.67.57,1.08-.08,2.44-.56,4.04-1.42,1.59-.88,2.96-1.89,4.14-3.04,1.18-1.13,2.17-2.34,2.99-3.61.84-1.27,1.53-2.58,2.09-3.9.56-1.31,1-2.58,1.35-3.81.33-1.23.6-2.37.79-3.41.18-1.03.3-1.9.39-2.6.33-2.82.68-5.68,1.03-8.56.16-1.3-.17-1.74-.98-1.34-2.69,1.34-5.42,2.69-8.17,4.06-.4.2-.73.51-.98.95-.25.44-.41.98-.48,1.64-.18,1.74-.36,3.47-.55,5.18-.07.61-.01,1.04.16,1.26s.47.23.87.03c.8-.41,1.58-.82,2.37-1.23-.08.78-.19,1.55-.33,2.3-.14.76-.34,1.48-.61,2.14-.28.69-.64,1.31-1.12,1.87-.47.56-1.08,1.04-1.83,1.45-.75.39-1.34.53-1.74.4-.41-.12-.69-.45-.83-1.03-.14-.56-.19-1.32-.14-2.28.03-.95.12-2.04.26-3.28.31-3.11.64-6.25.96-9.42.13-1.28.27-2.44.44-3.49.16-1.06.39-1.99.68-2.81.29-.83.69-1.55,1.19-2.15.49-.6,1.13-1.08,1.9-1.45.8-.38,1.4-.47,1.81-.29.42.18.68.6.81,1.26.13.65.16,1.49.09,2.53-.04.68.04,1.1.23,1.28.2.18.5.11.93-.22,1.61-1.31,3.2-2.61,4.8-3.9.38-.3.68-.69.9-1.13.22-.45.36-.97.42-1.54.09-1.04.13-2.15.09-3.33-.03-1.18-.16-2.32-.43-3.41-.27-1.1-.71-2.02-1.34-2.77-.64-.74-1.52-1.18-2.67-1.29-1.14-.14-2.6.21-4.38.99-1.69.78-3.19,1.75-4.46,2.9-1.28,1.18-2.38,2.46-3.28,3.83-.92,1.39-1.68,2.82-2.26,4.27-.59,1.46-1.07,2.88-1.42,4.24-.36,1.35-.62,2.6-.79,3.73-.17,1.13-.29,2.07-.35,2.82-.52,5.59-1.03,11.1-1.53,16.51h0Z"/>
  <g>
    <path class="st4" d="M106.92,102.19l-.02-12.35h49.49v12.35c0,5.04-10.31,9.53-24.75,9.53-14.44,0-24.72-4.48-24.73-9.53Z"/>
    <path class="st4" d="M111.69,56.92h39.9v12.34c0,3.27-8.41,6.12-19.92,6.12s-19.96-2.85-19.97-6.12l-.02-12.35h0Z"/>
    <path class="st4" d="M103.81,84.31c0,3.98-9.97,7.2-22.26,7.2s-22.25-3.23-22.26-7.2l-.02-12.35h44.53v12.35Z"/>
    <path class="st4" d="M159.49,71.95h44.53v12.35c0,3.97-9.98,7.2-22.26,7.2s-22.25-3.22-22.26-7.2v-12.35Z"/>
  </g>
  <path class="st3" d="M81.54,64.75c12.29,0,22.26,3.23,22.26,7.2s-9.97,7.2-22.26,7.2-22.26-3.23-22.26-7.2,9.97-7.2,22.26-7.2ZM111.69,56.92c.46-3.24,9.36-5.62,19.93-5.62,10.57,0,19.48,2.38,19.95,5.62.48,3.24-8.41,6.12-19.92,6.12s-20.42-2.88-19.97-6.12h0ZM106.9,89.83c.74-4.99,11.79-8.57,24.76-8.57,12.97,0,23.99,3.58,24.71,8.57.72,4.99-10.31,9.53-24.75,9.53-14.44,0-25.47-4.53-24.73-9.53h0ZM181.74,64.75c12.29,0,22.26,3.23,22.26,7.2s-9.97,7.2-22.26,7.2-22.26-3.23-22.26-7.2,9.97-7.2,22.26-7.2Z"/>
  <path class="st6" d="M231.62,83.96l-87.2,38.42c-4.75,1.97-10.66,7.43-10.66,13.01l-2.13,78.88-2.13-78.88c0-5.58-5.91-11.04-10.66-13.01L31.65,83.96l88.44,34.34c6.64,2.73,16.48,2.73,23.11-.02l88.41-34.32h0Z"/>
</svg>